<svg width="107" height="27" viewBox="0 0 107 27" fill="none" xmlns="http://www.w3.org/2000/svg">
<path d="M12.4202 0.228714C10.815 2.95036 0.0546875 21.4013 0.0546875 21.4337C0.0546875 21.4608 0.865543 21.4824 1.93938 21.4824H3.82407L8.73851 13.0686C11.445 8.44234 13.6749 4.65477 13.6968 4.65477C13.7132 4.65477 13.9872 5.59625 14.294 6.74875C14.7487 8.42611 14.8473 8.87521 14.809 8.98342C14.7816 9.05918 13.1379 11.889 11.1601 15.2708C9.17681 18.6526 7.56058 21.4391 7.56058 21.4554C7.56058 21.4716 8.41526 21.477 9.4617 21.4716L11.3628 21.4554L13.7187 17.4297C15.5486 14.3023 16.0855 13.4257 16.1184 13.5069C16.1403 13.561 16.606 15.2546 17.1484 17.262C17.6963 19.2694 18.1784 21.0441 18.2222 21.1956L18.3044 21.4824H20.0083H21.7067L21.6684 21.3309C21.6519 21.2498 20.9178 18.5498 20.0466 15.3357C19.1755 12.1163 18.4633 9.44875 18.4633 9.40006C18.4633 9.35677 18.9783 8.43152 19.6083 7.34936L20.7589 5.38523L19.0495 5.35817L17.3401 5.33112L16.6443 2.78803C16.2608 1.38663 15.9321 0.190838 15.9157 0.120499L15.8883 0.00145912H14.2227H12.5572L12.4202 0.228714Z" fill="black"/>
<path d="M23.2297 13.3932V21.4824H24.9008H26.5718L26.5608 13.4041L26.5444 5.33112L24.8898 5.31489L23.2297 5.30407V13.3932Z" fill="black"/>
<path d="M97.4504 5.34064C97.4285 5.35687 97.4121 6.68252 97.4121 8.28413V11.2006L97.0615 11.0112C96.2616 10.5729 95.3466 10.3619 94.2892 10.3673C93.3907 10.3673 92.8209 10.4917 92.0539 10.8489C91.369 11.1681 90.9526 11.4711 90.3993 12.0501C89.8624 12.6128 89.4734 13.2134 89.2104 13.906C88.9036 14.7122 88.8378 15.118 88.8433 16.0974C88.8488 16.844 88.8652 17.0334 88.9858 17.4825C89.3035 18.6459 89.7966 19.4791 90.6294 20.2637C91.6978 21.2647 92.8538 21.7246 94.3166 21.7246C95.3411 21.7246 96.2342 21.5136 97.056 21.0861L97.4066 20.9022L97.423 21.1781L97.4395 21.4541H99.1105H100.782V13.3919V5.32982L99.1324 5.31359C98.2284 5.30818 97.4724 5.319 97.4504 5.34064ZM95.6644 13.2242C96.1794 13.3324 96.667 13.5976 97.0669 13.9763L97.4121 14.301V16.0378V17.7747L97.1601 18.0344C96.6067 18.608 95.9767 18.8785 95.0836 18.9218C94.4207 18.9597 94.0372 18.8893 93.5277 18.635C92.0374 17.8992 91.5279 15.8593 92.4593 14.4038C92.8264 13.841 93.4236 13.4082 94.0755 13.235C94.4536 13.1322 95.2042 13.1268 95.6644 13.2242Z" fill="black"/>
<path d="M46.4159 10.1942C45.0901 10.4485 44.0491 10.9841 43.1944 11.8607C42.0165 13.0727 41.4412 14.7771 41.633 16.5086C41.9288 19.214 43.7423 21.1186 46.4597 21.5623C47.2432 21.6922 48.3663 21.6543 49.095 21.4649C50.2236 21.1727 51.1112 20.6749 51.8344 19.9282C52.837 18.8839 53.3411 17.6827 53.4013 16.1731C53.489 14.0304 52.6069 12.2178 50.9359 11.0978C50.5031 10.8056 49.7032 10.4593 49.1169 10.3078C48.6622 10.1888 48.4211 10.1563 47.6925 10.1401C47.0898 10.1292 46.6898 10.1455 46.4159 10.1942ZM48.0541 13.0944C49.3799 13.3433 50.2565 14.5823 50.1743 16.092C50.0867 17.6557 49.0074 18.727 47.5117 18.7216C46.2351 18.7162 45.2161 17.91 44.9202 16.6655C44.8819 16.5032 44.8545 16.1461 44.8545 15.8809C44.8545 14.999 45.1339 14.301 45.6982 13.7707C46.3283 13.1755 47.1829 12.932 48.0541 13.0944Z" fill="black"/>
<path d="M32.708 10.4164C30.4672 10.7681 28.7633 12.3589 28.2867 14.5557C28.2155 14.8857 28.1881 15.232 28.1935 15.8002C28.199 16.4927 28.2155 16.6442 28.347 17.0717C28.7414 18.3649 29.4865 19.3713 30.5823 20.0909C32.2917 21.2164 34.5873 21.3246 36.4336 20.3669C36.598 20.2803 36.7568 20.1992 36.7842 20.1883C36.8116 20.1775 36.8226 20.5671 36.8061 21.1352C36.7788 21.9306 36.7514 22.1633 36.6527 22.4501C36.3131 23.4457 35.4912 23.9705 34.275 23.9705C32.971 23.9705 32.0287 23.4078 31.8424 22.5258L31.7986 22.3202L30.1385 22.304L28.473 22.2931L28.5058 22.6124C28.5606 23.0885 28.84 23.8893 29.1249 24.3655C29.4153 24.8579 30.0673 25.5559 30.5439 25.8913C31.2233 26.3675 32.2314 26.7625 33.1189 26.8923C33.7326 26.9843 34.8393 26.9735 35.4255 26.8707C37.7868 26.4432 39.3921 25.0473 39.9783 22.9154L40.1317 22.3743L40.1482 16.4873L40.1646 10.6058H38.4881H36.8171V10.898V11.1847L36.3405 10.9521C35.2337 10.411 33.9517 10.227 32.708 10.4164ZM35.1132 13.1759C35.6282 13.3112 36.0008 13.5276 36.4226 13.9388L36.8171 14.3284V15.6541V16.9797L36.6034 17.2449C36.072 17.9158 35.2228 18.2891 34.2421 18.2891C32.8286 18.2891 31.5904 17.207 31.5137 15.903C31.4644 15.0805 31.7219 14.3501 32.2478 13.8306C32.5437 13.5384 33.0696 13.2463 33.4531 13.1543C33.7928 13.0785 34.7845 13.0893 35.1132 13.1759Z" fill="black"/>
<path d="M66.8023 10.4101C65.3723 10.6807 64.2108 11.4003 63.3342 12.5582C61.9043 14.4466 61.8057 17.1574 63.0932 19.1973C63.4055 19.6897 64.1013 20.4256 64.5724 20.7556C65.0436 21.0911 65.8545 21.4536 66.4352 21.5997C66.8352 21.6971 67.0707 21.7188 67.7172 21.7188C68.7911 21.7133 69.5855 21.5294 70.4292 21.0857L70.7799 20.9017L70.7963 21.1777L70.8127 21.4536H72.4564H74.1L74.1164 16.0266L74.1274 10.6049L72.4728 10.6157L70.8127 10.632L70.7963 10.9079L70.7799 11.1839L70.4292 10.9999C70.0128 10.7835 69.4321 10.5779 68.8952 10.4642C68.3528 10.3452 67.2899 10.3181 66.8023 10.4101ZM69.2184 13.2833C69.6951 13.4077 70.0567 13.6133 70.4347 13.9813L70.7853 14.3167V16.0374V17.7526L70.473 18.0773C69.6512 18.9322 68.1117 19.1811 66.9831 18.6454C66.238 18.2883 65.6517 17.5416 65.4655 16.7083C65.3723 16.2809 65.4271 15.426 65.575 15.0147C65.9202 14.0624 66.7091 13.3915 67.7172 13.2021C68.0405 13.1372 68.8294 13.1859 69.2184 13.2833Z" fill="black"/>
<path d="M81.8251 10.374C81.069 10.4768 80.176 10.8069 79.6555 11.1748C79.5076 11.2776 79.3761 11.3642 79.3597 11.3642C79.3487 11.3642 79.3323 11.2019 79.3213 10.9962L79.3049 10.6337L77.6503 10.6175L75.9902 10.6067V16.0445V21.4824L77.6503 21.4716L79.3049 21.4554L79.3213 18.0087L79.3323 14.5674L79.6993 14.2319C80.1212 13.8478 80.5705 13.5664 81.0197 13.4041C81.458 13.2417 82.3456 13.2417 82.8003 13.4095C83.6605 13.7179 84.1371 14.3888 84.2631 15.4656C84.2905 15.7253 84.3179 17.1862 84.3179 18.7121V21.4824L85.9232 21.4716L87.523 21.4554V18.1277C87.523 14.9407 87.5175 14.7784 87.4025 14.2806C87.0025 12.468 85.8794 11.1802 84.2358 10.6229C83.5454 10.3902 82.5045 10.282 81.8251 10.374Z" fill="black"/>
<path d="M60.0141 10.6337C59.3676 10.7474 58.7704 10.9908 58.365 11.2993L58.1842 11.4291V11.0179V10.6067H56.5406H54.897V16.0445V21.4824H56.5406H58.1842V18.1602V14.8379L58.5677 14.4808C59.1923 13.9019 59.9703 13.5772 61.1044 13.4257C61.34 13.3932 61.5591 13.3662 61.5865 13.3662C61.6139 13.3662 61.6358 12.7981 61.6358 11.9918C61.6358 10.7906 61.6249 10.6121 61.5482 10.585C61.4002 10.5309 60.4196 10.558 60.0141 10.6337Z" fill="black"/>
</svg>
