<svg id="Layer_1" data-name="Layer 1" xmlns="http://www.w3.org/2000/svg" viewBox="0 0 1280 1280"><defs><style>.cls-1{stroke:#000;stroke-miterlimit:10;stroke-width:6px;}</style></defs><path class="cls-1" d="M495.66,766.16a14.17,14.17,0,0,1-7.25-6.95l-2-2c-4.63-6.67-5.79-15.36-6.37-23.48-.58-9.85,1.16-62.3,1.74-72.15.87-18.26,2.32-36.23,4.92-54.19-10.43-.58-20.86-.58-31.29-1.74-9.28-1.16-14.78-11.31-9.57-19.13,1.74-2.32,3.77-4.06,6.38-4.64,6.08-1.73,36.8-3.47,43.18-3.76.58,0,.87-.58,1.44-.87,2.9-1.45,7-2,9.86-.58.58,0,1.74.87,2.32.87,8.11-.29,16.51.87,24.63,1.74,4.92.58,23.47,4.92,27.82,7.24,7.53,4.64,7.53,14.78.29,20-3.19,2-15.94,2.31-19.71,2.6s-25.79-.29-29.85-.58q-1.72,42.16-1.73,84.33c0,6.38.86,45.5.58,52.17,0,4.63,1.15,9.85-.58,14.2A12,12,0,0,1,495.66,766.16Z"/><path class="cls-1" d="M652.18,729.31a90.71,90.71,0,0,1-9.95-40c-.35-22.39,6.83-44.26,17.54-63.72,9.62-17.46,23.52-33.23,44.15-36.83a45.56,45.56,0,0,1,6.38-.67c17.28-.58,35,9.88,40.83,26.15,1.59,4.43,2.29,9.45.46,13.79s-6.77,7.56-11.29,6.23c-6.14-1.81-7.78-10-13-13.7-3.7-2.67-8.83-2.69-13.08-1s-7.77,4.75-10.94,8c-18.64,19.17-28.38,46.45-27,73.16.54,10.23,2.8,20.76,9,28.9s17.11,13.31,27,10.49c7-2,12.45-7.58,16.53-13.62s7.13-12.74,11.4-18.65c1.52-2.11,3.38-4.22,5.91-4.8,3.87-.87,7.71,2.46,8.78,6.28s.09,7.9-1.06,11.7c-2.91,9.67-7,19.12-13.15,27.11s-14.63,14.47-24.39,17.1c-12.8,3.44-26.75-.07-38-7A72.67,72.67,0,0,1,652.18,729.31Z"/><path d="M246.67,585.79q1.85-3.06,9.05-6.44a79.49,79.49,0,0,1,18-5.52,15.9,15.9,0,0,1,2.45.77,29.58,29.58,0,0,1,6,3.37,55.24,55.24,0,0,1,7.83,6.59,46.89,46.89,0,0,1,7.82,11.35,70.52,70.52,0,0,1,6,16.57q3.38,13.5,6.44,23.93,3.38,10.74,4.3,60.58t-2.15,58.74q-4.6,14.12-18.71,10.74-6.15-1.53-8.9-9.51t-4-27.61q-1.23-20.25-3.52-24.54t-10.89-2.76c-3.28.61-5.68,2-7.21,4s-2.66,5.47-3.38,10.27-1.38,12.94-2,24.39q-1.23,26.38-4.29,28.83-3.39,2.76-13.19,2.46t-14.73-3.38L216,764.93v-27q0-15.35,1.38-29.91t2.91-23.31q1.54-8.75,4.76-26.69T230.11,630q1.23-7.66,6.14-20.7A202.29,202.29,0,0,1,246.67,585.79ZM274,637.94q-1.85-8.58-4.91-8.28c-1,.2-1.84,1.53-2.46,4a212.76,212.76,0,0,0-4.14,24.7q-1.08,10.89.16,12.11,1.83,1.84,8,2.46l6.14.61-.62-14.11Q275.51,645.31,274,637.94Z"/><path d="M356.13,575.27q31.26-3.46,42.84,1.16,6.66,2.61,16.5,12.45,8.68,8.68,10.85,16.49t.72,27.21q-.57,11.58-2.89,18.38t-10.13,19q-2.32,4.05.87,10.28t3.18,8q0,2.31,8.25,21.7t12.3,26.34q9.56,16.21-1.73,24.6-3.76,2.61-5.94,2.9c-1.45.19-4.19-.19-8.25-1.16a47.41,47.41,0,0,1-14.32-6.66q-6.24-4.33-7.38-9-.58-2.31-7.67-20.12t-8-20.4a10.93,10.93,0,0,0-3.77-6.66q-2.89-2.31-4.77-.43c-1.26,1.26-8,9.47-8.17,26.64q-.3,19.37-1,23.15c-3.05,16-21.14,10.23-26.85-.73q-3.77-7.23-5.5-92.33.29-17.94-.29-30.68a125.46,125.46,0,0,1,.58-21.57q1.16-8.82,2-14a15.23,15.23,0,0,1,3.76-8.24,16,16,0,0,1,6.08-4.2A48.59,48.59,0,0,1,356.13,575.27ZM384.21,645a87.87,87.87,0,0,0,2.6-14.62,71.94,71.94,0,0,0-.43-19.83c-1.06-6.55-3.43-9.84-7.09-9.84s-14.89,2.84-15.66,6.5-.87,12.06-.29,25.18q1.44,24.62,2.32,26.34c1.34,2.32,12.56-.51,15.65-6.5C382.28,650.14,383.24,647.73,384.21,645Z"/><path d="M587.76,577.36a18.87,18.87,0,0,1,12.89-5.83,15.27,15.27,0,0,1,12.27,4.91q4.89,5.22,6.59,27.3t2.3,85.59q.62,71.16-2.15,74.38t-16.56,3.22q-13.5,0-16.26-2.76-4.29-4-4.29-27V721.53q0-37.72-.31-88l-.31-50Z"/><path d="M797.06,582.35a19.42,19.42,0,0,1,12.12-5.68,12.12,12.12,0,0,1,10.58,4.15,13,13,0,0,1,2.91,7.67q.47,4.9-.76,22.69-.93,16.27-2.15,29.61t-1.84,24.69q-.61,11.35-.31,35.58v39.27H832q25.77,0,25.77,13.18a10.53,10.53,0,0,1-5.06,9.21q-5.07,3.38-16.41,5.21Q821,770.39,803,764.86t-23.46-14.41c-.21-.41-.52-.92-.92-1.54a12.56,12.56,0,0,1-2-4.75c-.1-1.12,0-4,.16-8.74q1.21-15,1.84-31.29.92-32.21,2-45.4T784.18,632q2.45-13.49,4-25.46,1.53-12.26,2.91-16.25T797.06,582.35Z"/><path d="M883.3,581.74a29.13,29.13,0,0,0,8.59-1.84q4-1.53,12.88-.31L927.16,582A37.56,37.56,0,0,1,942,586.8c4.4,2.56,7.1,5.27,8.13,8.13s.31,5.52-2.15,8q-1.85,1.54-17.33,4.45T913.36,614q-2.15,3.67-4.29,16.56a170.43,170.43,0,0,0-2.46,21.16L906.3,660l12.58,1.22a46.61,46.61,0,0,1,17.64,5.07q7.82,4.14,7.82,8.12,0,7.07-5.52,10.43t-20.25,4.91l-12.27,1.23.31,22.08q0,13.82.77,18.72a14.63,14.63,0,0,0,3.22,7.66,8.43,8.43,0,0,0,8.9,3.07q17.18-4,24.07-4.14a27.33,27.33,0,0,1,13,2.92q6.75,3.38,8.44,6.13t.46,8.9q-1.23,5.82-7.67,8.74t-21.78,4.75q-20.25,2.16-32.06-.3a45.06,45.06,0,0,1-21.31-11.05,49.2,49.2,0,0,1-8.44-9.2,33,33,0,0,1-4.14-10.12q-2.76-12.58-2.76-33T868.88,667q1.53-18.71,2.76-40.34t.62-34.2c-.42-3.68.2-6.29,1.84-7.82S878.8,582.15,883.3,581.74Z"/><path d="M968,618.24q0-9.81,7.06-19.48a50.86,50.86,0,0,1,17.48-15.18q10.43-5.52,23.77-4.3t24.08,11.35q8.59,7.68,3.68,16.87c-1.22,2.26-4.09,3.58-8.59,4a23.54,23.54,0,0,1-12.88-2.45q-10.43-4.6-12.88,12.57-1.23,9.82,2.45,14.27t13.19,4.45q9.51,0,14.73,2.76,6.12,3.06,13.34,13.8t9.36,19.63q4.29,18.11-.31,46.93t-13.5,39q-4.29,4.9-15,9.36t-18.1,4.44q-8,0-17.94-4.6A50.38,50.38,0,0,1,981.49,760q-4-4-4.76-6.14c-.51-1.43-.26-3.37.77-5.83q2.14-6.43,10.89-8.89a26.54,26.54,0,0,1,17.33.92q8.28,3.38,10.12,1.53,2.76-2.76,8.29-18.25t5.52-20.71q0-6.44-2.76-16.87c-1.85-7-3.68-11.45-5.53-13.49-1.63-2-4.29-3.07-8-3.07q-5.83,0-19-6t-17.79-10.89c-2.25-2.46-4.25-7.1-6-14A81.39,81.39,0,0,1,968,618.24Z"/></svg>