<svg width="25" height="19" viewBox="0 0 25 19" fill="none" xmlns="http://www.w3.org/2000/svg">
<path d="M21.1645 1.57462C19.5706 0.845427 17.8626 0.308506 16.0757 0.00134951C16.043 -0.00469689 16.0102 0.00981534 15.9944 0.0400473C15.7749 0.429435 15.531 0.938539 15.3612 1.3376C13.4397 1.051 11.5279 1.051 9.64526 1.3376C9.47422 0.928865 9.2219 0.429435 9.00112 0.0400473C8.98414 0.0110246 8.95139 -0.00348761 8.91985 0.00134951C7.13422 0.308506 5.42502 0.845427 3.83105 1.57462C3.81771 1.58067 3.80558 1.59034 3.79708 1.60364C0.555775 6.43109 -0.332212 11.14 0.103278 15.7909C0.105705 15.8139 0.117838 15.8356 0.136034 15.8489C2.27467 17.415 4.34661 18.3655 6.3797 18.9955C6.41246 19.0052 6.44642 18.9931 6.46704 18.9665C6.94741 18.3123 7.37684 17.6218 7.7444 16.895C7.76624 16.8527 7.74439 16.8019 7.70072 16.7849C7.02019 16.5274 6.37362 16.2142 5.7501 15.8586C5.70036 15.8296 5.69675 15.7595 5.74163 15.7256C5.87264 15.6276 6.00364 15.5261 6.12859 15.4233C6.15164 15.4039 6.18317 15.4003 6.20986 15.4124C10.3015 17.2747 14.7316 17.2747 18.7748 15.4124C18.8015 15.3991 18.833 15.4039 18.8561 15.4221C18.981 15.5249 19.112 15.6276 19.2442 15.7256C19.2891 15.7595 19.2867 15.8296 19.237 15.8586C18.6147 16.2214 17.9669 16.5286 17.2851 16.7849C17.2403 16.8019 17.2208 16.8527 17.2427 16.8962C17.6187 17.6205 18.0469 18.311 18.5188 18.9665C18.5382 18.9943 18.5734 19.0064 18.6062 18.9967C20.649 18.3667 22.7209 17.4162 24.8595 15.8502C24.8777 15.8369 24.8898 15.8151 24.8923 15.7933C25.4139 10.4169 24.0189 5.74664 21.1961 1.60607C21.1888 1.59276 21.1779 1.58188 21.1633 1.57583L21.1645 1.57462ZM8.35333 12.9588C7.12086 12.9588 6.10676 11.8317 6.10676 10.4471C6.10676 9.06248 7.10266 7.93543 8.35333 7.93543C9.604 7.93543 10.6206 9.07336 10.5999 10.4471C10.5999 11.8317 9.604 12.9588 8.35333 12.9588ZM16.6616 12.9588C15.4291 12.9588 14.415 11.8317 14.415 10.4471C14.415 9.06248 15.4109 7.93543 16.6616 7.93543C17.9123 7.93543 18.9288 9.07336 18.9082 10.4471C18.9082 11.8317 17.9232 12.9588 16.6616 12.9588Z" fill="white"/>
</svg>
