<svg width="100" height="58" viewBox="0 0 100 58" fill="none" xmlns="http://www.w3.org/2000/svg">
<path d="M22.3513 50.7688C22.1884 46.7842 21.9925 42.8014 21.8313 38.8168C21.8157 37.8563 21.9319 36.8215 21.9501 35.8234C21.9559 35.174 21.7206 34.5459 21.2904 34.0623C20.8602 33.5787 20.2662 33.2746 19.625 33.2098C18.7583 33.0927 18.1075 33.5381 18.0893 34.469C18.0581 36.6634 17.994 38.8578 18.0954 41.0479C18.215 44.402 18.4351 47.7876 18.6214 51.1408C18.6214 51.4028 18.5634 51.6735 18.5348 51.9721C18.2057 51.6625 17.9508 51.2814 17.7895 50.8579C16.6863 48.1203 15.584 45.3835 14.4799 42.6136C14.239 42.0198 14.0631 41.3588 13.7554 40.7999C13.3446 39.9101 12.7059 39.3242 11.7085 39.0439C10.7101 38.7304 9.98565 38.9775 9.43882 39.9171C8.98645 40.5904 8.63547 41.3614 8.28362 42.1657C7.35808 44.2772 6.46374 46.4201 5.572 48.5639C5.44288 48.7665 5.31202 49.0005 5.0893 49.3707C5.0165 49.0066 4.94804 48.8093 4.91598 48.6433C4.71319 46.2559 4.51041 43.8999 4.27295 41.4828C4.11003 39.5914 3.98091 37.6999 3.81798 35.8417C3.73566 34.8462 3.16282 34.193 2.32915 33.7774C1.72858 33.4569 1.09683 33.3014 0.4746 33.7127C-0.115562 34.1232 -0.00636767 34.7178 0.0369628 35.316C0.361075 38.9993 0.618456 42.7481 0.977233 46.5301C1.20948 48.6853 1.5102 50.8727 1.77625 53.0287C1.92617 54.1229 2.30575 55.0791 3.20875 55.7262C4.58233 56.6963 5.90218 56.506 6.84159 55.1586C7.29618 54.6021 7.66328 53.9786 7.93005 53.3099C8.98385 50.9635 9.97265 48.6189 10.9632 46.2743C11.1226 45.8726 11.3159 45.5364 11.5698 45.0002C11.7761 45.4613 11.9165 45.7573 12.0837 46.0865C12.8741 47.9325 13.5647 49.7803 14.4539 51.5582C15.2512 53.1013 16.1598 54.5834 17.1724 55.9925C17.6825 56.6704 18.3358 57.2255 19.0851 57.6176C20.7871 58.5153 22.1988 57.7922 22.3669 55.8598C22.5038 54.1552 22.4111 52.4629 22.3513 50.7688Z" fill="#A53A4C"/>
<path d="M36.6286 52.9606C36.5356 51.5769 36.4414 49.2619 36.3461 46.0158C36.2843 43.5055 36.2011 41.6779 36.0965 40.5327C35.992 39.3876 35.8337 38.5528 35.6216 38.0283C35.409 37.5044 35.082 37.1283 34.6406 36.9001C34.1992 36.6719 33.9557 36.5554 33.9101 36.5508C32.9707 36.7982 32.3929 37.0631 32.1768 37.3454C32.0336 37.5067 31.9088 38.7132 31.8025 40.965L31.643 44.3156L30.4532 44.3846C29.6368 44.4288 29.1648 44.3642 29.0371 44.1907C28.9297 44.0597 28.8624 42.8593 28.8352 40.5895C28.808 38.3197 28.741 37.1091 28.6341 36.9577C28.5065 36.7831 28.0758 36.6792 27.342 36.646C26.6083 36.6128 26.0196 36.7516 25.5759 37.0625L24.9441 37.4991L24.7535 42.2259C24.646 44.9621 24.6749 47.7855 24.8401 50.6963C25.0054 53.6071 25.2174 55.2168 25.4762 55.5253C25.6698 55.7442 26.0906 55.9264 26.7389 56.072C27.3871 56.2175 27.9284 56.2487 28.3629 56.1654C28.7043 56.0999 28.9539 55.9698 29.1099 55.7786C29.2659 55.5873 29.3422 55.2773 29.3404 54.8486C29.3373 54.3964 29.3084 53.9448 29.2538 53.4959C29.1966 53.0218 29.1324 52.3607 29.0596 51.5111C28.9881 50.6914 28.9591 49.8686 28.973 49.0459L29.0189 47.3536L30.1455 47.2829C30.3773 47.2141 30.6224 47.2045 30.8587 47.2549C31.0598 47.3064 31.2166 47.3422 31.3293 47.3562C31.3894 47.3676 31.4459 47.3933 31.4941 47.4311C31.5423 47.4689 31.5809 47.5178 31.6066 47.5737C31.6723 47.6811 31.7186 47.7993 31.7435 47.9229C31.7609 48.0289 31.7756 48.1968 31.7877 48.4268C31.7999 48.6567 31.8117 48.882 31.8233 49.1027C31.8342 49.3227 31.8548 49.6007 31.8848 49.9366C31.9166 50.2868 31.9681 50.6349 32.0391 50.9793C32.1072 51.445 32.1581 51.9282 32.1916 52.4288C32.2251 52.9295 32.2404 53.3274 32.2375 53.6226C32.2338 53.9114 32.2486 54.2001 32.2817 54.4871C32.2971 54.7256 32.3735 54.956 32.5036 55.156C32.6597 55.3499 32.8626 55.5002 33.0929 55.5926C33.4515 55.742 33.8321 55.8305 34.2194 55.8545C34.7593 55.9235 35.1372 55.9419 35.3538 55.9096C35.5705 55.8773 35.8305 55.7541 36.1338 55.5384L36.8011 55.0695L36.6286 52.9606Z" fill="#A53A4C"/>
<path d="M42.4863 47.6638C42.395 43.3431 42.2924 40.4323 42.1786 38.9315C42.0648 37.4307 41.8686 36.5059 41.5902 36.1572C41.3117 35.8079 40.9674 35.6487 40.5572 35.6795C40.147 35.7104 39.7902 35.9171 39.4869 36.2995L39.0085 36.9379L39.1004 42.0419C39.1622 45.4668 39.2102 48.4626 39.2443 51.0293C39.2547 51.8018 39.2616 52.3342 39.2651 52.6264C39.2853 54.193 39.4173 55.1091 39.6611 55.3745C39.8171 55.5579 40.2715 55.6411 41.0243 55.6243C41.7938 55.6068 42.2543 55.4863 42.4057 55.2627C42.557 55.0392 42.5839 52.5062 42.4863 47.6638Z" fill="#A53A4C"/>
<path d="M52.7954 46.203C52.648 45.6004 52.336 44.9382 51.8594 44.2164C51.3828 43.4945 50.9446 43.0325 50.5448 42.8305C50.2051 42.6489 49.7284 42.5686 49.1157 42.5782C48.503 42.5878 48.0758 42.4472 47.8314 42.1494C47.587 41.8516 47.5021 41.3635 47.5714 40.6981C47.7118 39.5262 48.1211 39.0896 48.7994 39.3882C49.1852 39.5866 49.6207 39.665 50.0508 39.6135C50.4858 39.5629 50.7611 39.4217 50.8767 39.19C51.1835 38.5572 51.0558 37.9852 50.4936 37.4741C49.7894 36.7988 49.006 36.428 48.1434 36.3616C47.2768 36.297 46.5159 36.4568 45.8486 36.8462C45.1782 37.2379 44.6067 37.7803 44.1786 38.4312C43.7332 39.0972 43.5154 39.7643 43.5252 40.4326C43.539 41.1239 43.6344 41.811 43.8095 42.4795C43.9828 43.1781 44.1882 43.647 44.4092 43.8933C44.7119 44.2216 45.2922 44.5808 46.1502 44.9708C47.0081 45.3609 47.6257 45.5527 48.003 45.5463C48.36 45.5393 48.6192 45.6397 48.7829 45.8441C48.9641 46.0502 49.1495 46.5051 49.3384 47.2124C49.5274 47.9198 49.6253 48.49 49.6314 48.9283C49.6366 49.2846 49.4693 49.9928 49.1296 51.0529C48.7899 52.113 48.5299 52.7397 48.3496 52.933C48.2341 53.0605 47.9065 53.0148 47.3669 52.7959C46.8314 52.578 46.2369 52.5566 45.6874 52.7357C45.1259 52.9103 44.7783 53.2229 44.6475 53.6639C44.553 53.9171 44.5305 54.1162 44.5825 54.2612C44.6345 54.4062 44.7905 54.6105 45.0522 54.8777C45.5036 55.3708 46.0508 55.7652 46.6597 56.0365C47.308 56.3369 47.8895 56.4824 48.4042 56.4731C48.8803 56.4632 49.4624 56.3002 50.1505 55.9841C50.8385 55.668 51.3189 55.3396 51.5916 54.9991C52.1561 54.3005 52.5718 52.9659 52.8387 50.9953C53.1056 49.0247 53.0912 47.4272 52.7954 46.203Z" fill="#A53A4C"/>
<path d="M64.0527 39.1736C63.9891 38.8417 63.795 38.417 63.4703 37.8995C62.9353 37.0111 62.4512 36.4348 62.0179 36.1705C61.5846 35.9062 60.8468 35.7106 59.8046 35.5837C58.7646 35.476 58.0806 35.4303 57.7524 35.4466C57.2341 35.4945 56.7202 35.5821 56.2151 35.7085C54.7985 36.0683 53.985 36.72 53.7747 37.6637C53.6274 38.2925 54.5798 41.0781 54.7635 46.3795C54.9472 51.6809 54.1872 54.5993 54.3597 54.773C54.5321 54.9468 54.9481 55.1651 55.6076 55.4262C56.2671 55.6873 56.7342 55.8131 57.0046 55.8087C57.2524 55.8035 57.5878 55.6419 58.0124 55.3214L57.5358 53.9758L57.4743 52.2075C57.4512 50.8505 57.4873 49.9833 57.5826 49.6061C57.677 49.228 59.0662 49.035 59.4952 49.028C59.9909 49.0193 60.5634 48.8056 61.2128 48.3871C61.8371 47.9891 62.3801 47.4746 62.8126 46.8711C63.3626 46.0678 63.728 45.3144 63.9088 44.6112C64.0897 43.9079 64.1784 42.8359 64.1749 41.3951C64.1558 40.2476 64.1134 39.5063 64.0527 39.1736ZM59.7543 42.4447C59.607 44.4526 59.2416 45.5243 58.658 45.66C58.6205 45.6632 58.5826 45.6582 58.5471 45.6452C58.5117 45.6322 58.4794 45.6116 58.4527 45.5849C58.4067 45.5333 58.366 45.3718 58.3261 45.1011C58.2863 44.8304 58.2533 44.4898 58.223 44.0689C58.1927 43.648 58.1597 43.0263 58.1234 42.1915C58.0142 39.8337 57.9928 38.6019 58.0592 38.4959C58.1257 38.39 58.3172 38.3553 58.6338 38.392C58.7275 38.4011 58.8164 38.4378 58.8894 38.4977C59.0255 38.6052 59.1427 38.7351 59.2361 38.8819C59.3799 39.1069 59.4869 39.3537 59.5533 39.6128C59.6519 39.9919 59.7209 40.3781 59.7595 40.7681C59.8116 41.3258 59.8098 41.8873 59.7543 42.4447Z" fill="#A53A4C"/>
<path d="M75.2917 52.7563C75.1851 52.559 74.9208 52.3433 74.5014 52.1101C74.1323 51.8998 73.7115 51.7999 73.2881 51.8219C72.8629 51.8429 72.1222 52.0085 71.0661 52.3188C70.7455 52.4149 70.4693 52.3101 70.2376 52.0045C70.0825 51.8097 69.9776 51.5347 69.9282 51.1819C69.8789 50.8291 69.8416 50.1549 69.8295 49.1594L69.7679 46.7694L70.9014 46.6113C71.8079 46.4815 72.4302 46.2906 72.7681 46.0385C73.1061 45.7864 73.2716 45.408 73.2647 44.9033C73.2607 44.6163 73.0151 44.3284 72.5281 44.0397C72.0265 43.7468 71.4657 43.5718 70.8876 43.5279L69.722 43.4214L69.7385 42.5246C69.7628 41.7561 69.8281 40.9894 69.9343 40.228C70.0539 39.2965 70.1781 38.6963 70.307 38.4274C70.4167 38.1584 70.9483 37.9087 71.9015 37.6781C72.8548 37.4459 73.3869 37.2747 73.4987 37.1603C73.6047 37.0463 73.678 36.9054 73.711 36.7528C73.7439 36.6001 73.7353 36.4413 73.6859 36.2932C73.5871 35.9858 73.3323 35.6979 72.9215 35.4296C72.504 35.1598 72.0287 34.9943 71.5349 34.9467L69.4551 34.7275C68.9039 34.6506 68.5061 34.6704 68.2618 34.7869C68.0122 34.904 67.7446 34.9773 67.4705 35.0034C67.0537 35.0567 66.7721 35.1685 66.623 35.337C66.4739 35.5055 66.4202 35.7902 66.4644 36.1875C66.5147 37.0951 66.5126 38.3293 66.4583 39.8901C66.404 41.4508 66.3387 42.9062 66.2625 44.2562C66.1862 45.6092 66.1573 47.0212 66.1758 48.4923C66.1943 49.9634 66.296 51.1507 66.4809 52.0542C66.5585 52.4345 66.6929 52.8008 66.8795 53.1405C67.1033 53.4986 67.3702 53.8274 67.6742 54.1194C68.2698 54.7255 68.9342 55.1094 69.6674 55.2712C70.4005 55.4331 71.3899 55.4217 72.6355 55.2372C73.5801 55.0847 74.2497 54.8987 74.6443 54.6792C74.8272 54.5859 74.9855 54.4502 75.106 54.2832C75.2266 54.1162 75.306 53.9227 75.3376 53.7186C75.4165 53.275 75.3974 52.9528 75.2917 52.7563Z" fill="#A53A4C"/>
<path d="M88.6306 52.8812C88.3065 52.3852 87.8102 51.4433 87.1418 50.0555C86.4733 48.6676 86.1374 47.8895 86.1339 47.7213C86.1339 47.5964 86.0031 47.3126 85.7474 46.8673C85.4918 46.4219 85.4493 46.0525 85.6261 45.7565C86.2206 44.8699 86.6039 44.1792 86.7761 43.6843C86.9483 43.1895 87.052 42.5267 87.0872 41.696C87.1756 40.2988 87.1302 39.3181 86.9511 38.754C86.772 38.1899 86.3387 37.6019 85.6512 36.9901C84.8713 36.2915 84.2202 35.8549 83.6979 35.6802C82.7891 35.3618 81.1171 35.3493 78.6819 35.6427C78.3385 35.6927 77.9998 35.7722 77.6697 35.8802C77.4034 35.9804 77.1629 36.1398 76.966 36.3465C76.7325 36.5932 76.5834 36.9087 76.5406 37.2468C76.4799 37.6241 76.4097 38.1314 76.33 38.7689C76.2488 39.5444 76.2395 40.3258 76.3022 41.103C76.3646 42.0217 76.3889 43.1272 76.395 44.4213C76.6365 50.5573 76.9089 53.8837 77.2122 54.4007C77.3988 54.7313 77.9008 55.0253 78.7183 55.2826L79.9117 55.7001L80.5131 55.2503C80.8251 55.0373 81.0073 54.7939 81.0599 54.5203C81.111 54.2487 80.1066 52.3765 80.1066 50.9785C80.0971 49.1202 81.1916 49.156 81.3364 49.0172C81.4811 48.8783 81.6674 48.8923 81.8971 49.0547C82.1306 49.2268 82.292 49.4807 82.3494 49.7664C82.4211 49.9545 82.7443 50.6854 83.3192 51.9591C83.894 53.2329 84.206 53.953 84.2551 54.1195C84.3496 54.4531 84.6442 54.7701 85.1347 55.0748C85.6584 55.3932 86.2288 55.6263 86.8246 55.7655C87.3012 55.8625 87.6236 55.8974 87.7917 55.8747C87.9599 55.852 88.1904 55.7428 88.485 55.549C89.347 54.9296 89.3956 54.0403 88.6306 52.8812ZM82.3685 41.5414C82.2905 42.2627 82.1981 42.7913 82.0912 43.1272C81.9831 43.4224 81.8745 43.6843 81.7653 43.9131C81.4152 44.5663 81.1593 44.77 80.9975 44.5244C80.9276 44.3992 80.8207 43.4509 80.6769 41.6794C80.5844 40.2612 80.5801 39.3528 80.6639 38.954C80.7477 38.5552 81.0042 38.3515 81.4334 38.3427C81.8621 38.334 82.1449 38.6833 82.2818 39.3906C82.4175 40.0991 82.4467 40.8241 82.3685 41.5414Z" fill="#A53A4C"/>
<path d="M92.0561 56.5084C91.264 56.518 90.5586 56.3277 89.9936 55.7225C89.5126 55.2108 89.3558 53.976 89.7336 53.391C89.8324 53.2542 89.9766 53.1578 90.1401 53.1194C90.4174 53.0618 90.7085 53.0722 90.9937 53.0478C92.0882 52.9605 93.1914 52.9151 94.2738 52.7456C94.7721 52.6679 95.2678 52.3963 95.702 52.1091C96.4646 51.6122 96.787 50.5486 96.455 49.6946C96.3493 49.4221 96.1084 49.1837 95.8813 48.982C94.7054 47.9341 93.4956 46.9229 92.3369 45.8549C91.8647 45.4008 91.4391 44.9 91.0665 44.36C90.3628 43.3819 90.2155 42.2572 90.2415 41.0687C90.2891 38.9319 91.2814 37.2588 92.668 35.7568C93.2945 35.0775 93.9627 34.447 94.7764 33.9929C95.5503 33.5615 96.3926 33.5659 97.2211 33.6899C97.9335 33.7973 98.7004 34.9552 98.5904 35.6494C98.573 35.7568 98.4682 35.8616 98.3824 35.9455C97.3373 36.9683 96.2904 37.9871 95.2418 39.0018C95.1595 39.0821 95.0901 39.1764 95.0069 39.255C93.3604 40.8076 94.1542 43.4762 95.5347 44.5058C95.8597 44.7485 96.2557 44.904 96.6336 45.0638C97.9569 45.6235 99.0445 46.4505 99.6589 47.7926C99.8237 48.17 99.929 48.571 99.9709 48.9811C100.025 49.4605 99.9769 49.9504 99.9951 50.4359C100.039 51.2425 99.7799 52.0361 99.2698 52.6592C98.6556 53.4193 97.9942 54.1394 97.2896 54.8152C96.2427 55.8028 94.8969 56.1329 93.5242 56.346C93.0397 56.429 92.5466 56.4578 92.0561 56.5084Z" fill="#A53A4C"/>
<path d="M7.76543 0.188669C9.23867 0.188669 10.7119 0.188669 12.1851 0.188669C12.7805 0.188669 13.1939 0.519628 13.2909 1.10295C13.4643 2.17703 13.6376 3.25286 13.7823 4.33393C13.8811 5.08316 13.0344 6.12144 12.2865 6.20527C11.0196 6.34761 9.74737 6.44803 8.48559 6.62966C7.98555 6.70214 7.49245 6.90648 7.02795 7.12042C6.69777 7.27236 6.35286 7.48543 6.1284 7.76487C4.89782 9.30177 5.1266 10.0554 6.56691 10.726C7.62157 11.2176 8.75337 11.553 9.8687 11.8996C11.3541 12.3625 12.3524 13.6601 12.355 15.2267C12.355 16.0126 12.1123 16.437 11.3619 16.6073C10.0619 16.9007 8.75077 17.1033 7.44479 17.353C7.19951 17.3901 6.96078 17.4624 6.7359 17.5678C6.60677 17.6351 6.44558 17.8298 6.45598 17.9529C6.6423 20.1797 6.7723 22.4352 7.86856 24.4472C8.90849 26.3631 9.76297 26.6827 11.9122 26.2478C12.3728 26.1579 12.8472 26.1692 13.3031 26.281C13.817 26.4102 14.7338 27.831 14.616 28.3383C14.5293 28.6998 14.2503 29.0718 13.9556 29.3146C13.1211 30.0018 12.1305 30.3791 11.0958 30.6978C9.40852 31.2218 7.7923 30.7851 6.15614 30.4638C5.91349 30.4158 5.67603 30.3389 5.43512 30.283C3.6811 29.8761 3.16806 28.4981 3.00861 26.9577C2.59957 22.9548 2.20439 18.9493 1.91061 14.9368C1.66796 11.6185 1.56397 8.29056 1.42878 4.96527C1.38891 3.98376 1.42878 2.997 1.46257 2.01374C1.50937 0.689036 2.25292 -0.00693381 3.54677 5.20779e-05C4.94895 0.00791121 6.35199 5.20779e-05 7.75417 5.20779e-05C7.76543 0.0629251 7.76543 0.130162 7.76543 0.188669Z" fill="#A53A4C"/>
<path d="M76.6296 20.1095C76.6131 20.3575 76.5585 20.6099 76.5863 20.8527C76.7873 22.593 77.03 24.329 77.2068 26.072C77.2876 26.8371 77.2932 27.6085 77.2232 28.3747C77.1773 28.8524 76.9633 29.3353 76.7397 29.7719C76.5161 30.2085 76.0819 30.4251 75.5723 30.3447C75.0628 30.2644 74.8063 29.9003 74.73 29.427C74.5012 27.9984 74.2265 26.5715 74.0982 25.1324C73.7233 20.9455 73.385 16.7554 73.0834 12.5622C72.9665 10.958 72.9612 9.34516 72.9162 7.73579C72.9058 7.35505 73.3842 6.78221 73.7759 6.6879C74.2092 6.58748 74.5809 6.74728 74.7707 7.1315C75.315 8.23353 75.8913 9.32769 76.3237 10.4751C77.277 13.0023 78.2606 15.5093 79.6506 17.833C79.7421 18.0069 79.8526 18.1701 79.9799 18.3194C80.0787 18.4224 80.2624 18.5517 80.3604 18.5194C80.4583 18.4871 80.5857 18.2819 80.5918 18.1474C80.6238 17.3615 80.6507 16.5756 80.6299 15.7896C80.5519 12.839 80.4566 9.88918 80.3699 6.93939C80.3569 6.51063 80.4375 6.11943 80.8587 5.8854C81.617 5.4645 82.3536 5.85571 82.4558 6.79094C82.6924 8.96006 82.8805 11.1335 83.1153 13.3027C83.4524 16.4131 83.7973 19.5236 84.17 22.6297C84.4126 24.6521 84.7229 26.6667 84.9803 28.6873C85.0739 29.4182 85.0349 30.1806 84.3442 30.6085C83.6535 31.0363 82.9221 30.8311 82.2851 30.4076C81.6204 29.9658 80.9852 29.4811 80.3534 28.9886C79.1341 28.0359 78.784 26.6021 78.3663 25.2188C77.9174 23.7343 77.5066 22.2324 77.0733 20.74C77.01 20.5226 76.9173 20.3139 76.8376 20.1008L76.6296 20.1095Z" fill="#A53A4C"/>
<path d="M52.1775 19.7034C53.1957 19.4484 54.1065 19.2345 55.0087 18.9908C55.9489 18.7367 55.9177 18.7289 55.8753 17.7308C55.7748 15.3364 55.702 12.9402 55.6248 10.5449C55.6084 10.2433 55.6391 9.94096 55.7158 9.64897C55.8675 9.13201 56.2011 8.78272 56.7792 8.75303C57.3355 8.72421 57.7472 9.015 57.8832 9.50576C58.1413 10.4318 58.3399 11.3737 58.4777 12.3254C58.911 15.3687 59.2776 18.4198 59.7048 21.463C59.9709 23.3562 60.3219 25.2371 60.5922 27.1303C60.7751 28.407 60.4883 28.9038 59.4215 29.419C58.7932 29.7221 58.489 29.6548 58.0262 29.1099C57.4118 28.386 57.2099 27.4874 57.0322 26.5967C56.7488 25.1777 56.5122 23.7491 56.2887 22.3179C56.2271 21.9249 56.072 21.8341 55.7219 21.938C54.8379 22.2 53.9523 22.462 53.064 22.7073C52.7009 22.8086 52.6229 23.0331 52.6394 23.3902C52.6974 24.6765 52.7486 25.9636 52.7572 27.2499C52.765 28.3633 52.4158 29.3972 51.9105 30.3761C51.6861 30.8127 51.3802 31.1428 50.8316 31.0948C50.2692 31.045 49.965 30.6948 49.8653 30.1761C49.6773 29.1597 49.4632 28.1415 49.374 27.1137C48.8869 21.5433 48.9294 15.9607 49.0455 10.3773C49.0501 10.1982 49.0636 10.0196 49.0863 9.84196C49.1859 9.03596 49.6626 8.50415 50.329 8.57227C50.9711 8.63776 51.6506 9.00889 51.6792 9.95984C51.7424 12.0347 51.7901 14.1095 51.8845 16.1825C51.9409 17.3334 52.0761 18.4861 52.1775 19.7034Z" fill="#A53A4C"/>
<path d="M98.2214 6.61948C98.2413 7.18272 98.0386 7.63418 97.6148 7.9468C97.0489 8.36595 96.4189 8.69516 95.8816 9.14488C94.5435 10.2591 93.4152 11.5899 93.3823 13.4709C93.3346 16.1657 93.3823 18.8657 93.5001 21.5579C93.5963 23.741 93.8762 25.918 94.0322 28.1011C94.0703 28.8103 94.0468 29.5215 93.962 30.2266C93.8858 30.9653 93.5105 31.3504 92.9221 31.4831C92.2739 31.6298 91.8986 31.2482 91.6118 30.7409C90.8959 29.4747 90.5718 28.0766 90.4401 26.6314C89.9929 21.6374 89.5692 16.6407 89.1272 11.6467C89.0813 11.1228 88.9781 10.611 88.8906 10.0958C88.804 9.59809 88.4928 9.30992 88.0474 9.17631C87.361 8.96324 86.6721 8.75804 85.9849 8.54759C85.8644 8.51091 85.7457 8.46812 85.627 8.42446C84.6936 8.07516 84.3643 7.71626 84.4137 7.08229C84.4778 6.20207 85.1217 5.40219 85.9372 5.28168C86.6816 5.17165 87.4347 5.11577 88.1852 5.06861C90.2781 4.9385 92.3735 4.84332 94.4647 4.69225C94.9942 4.65382 95.5098 4.44163 96.0367 4.33422C97.2499 4.0871 97.711 4.3805 98.0481 5.63185C98.1295 5.95407 98.1633 6.29027 98.2214 6.61948Z" fill="#A53A4C"/>
<path d="M45.9421 11.5838C44.9949 9.16839 42.8033 7.77995 40.2346 7.98953C39.4321 8.05415 38.6531 8.9204 38.6669 9.736C38.7721 16.0547 39.145 22.3575 39.7857 28.6442C39.8714 29.3894 40.0427 30.122 40.2962 30.8273C40.5154 31.4621 41.1368 31.6813 41.6827 31.4385C42.1663 31.2229 42.9592 29.8833 42.909 29.3428C42.8301 28.4879 42.7859 27.626 42.6403 26.7816C42.4947 25.9372 42.4332 25.16 43.2712 24.6247C43.311 24.5889 43.3449 24.5471 43.3718 24.5007C45.4932 21.7509 46.5912 18.65 46.5513 14.9929C46.6276 13.9127 46.3919 12.7321 45.9421 11.5838ZM42.727 19.6333C42.6631 19.7189 42.5923 19.7992 42.5155 19.8734C42.451 19.914 42.3821 19.9471 42.3102 19.9721C42.2518 19.7511 42.2046 19.5273 42.1689 19.3014C41.9297 17.1183 41.6871 14.9353 41.4756 12.7434C41.4479 12.4614 41.4808 12.0448 41.6559 11.8999C42.0294 11.5969 42.7469 11.7017 43.0208 12.0745C43.3241 12.4832 43.6274 12.9373 43.7583 13.4193C44.3493 15.633 44.13 17.7392 42.727 19.6333Z" fill="#A53A4C"/>
<path d="M17.0527 8.85435C17.0527 8.1741 17.0224 7.4921 17.0597 6.81447C17.1177 5.76658 18.0199 5.11253 18.9515 5.48017C19.2522 5.59893 19.6014 5.93948 19.6742 6.24162C19.9836 7.52266 20.2765 8.81767 20.4325 10.1249C20.891 13.961 21.2809 17.805 21.6969 21.6464C21.8304 22.875 21.9777 24.0914 22.6207 25.1943C23.1537 26.1086 23.6147 26.3881 24.6616 26.2641C24.9259 26.2326 25.1902 26.1994 25.4545 26.1698C27.1011 25.9855 27.7944 27.2814 27.9322 28.4341C28.0301 29.2671 27.7588 29.7579 26.998 30.1674C25.1781 31.1472 23.2559 31.39 21.2671 31.0974C20.319 30.9603 19.773 30.177 19.52 29.316C19.1586 28.0865 18.818 26.8299 18.6698 25.5611C18.2209 21.7066 17.8734 17.8408 17.4757 13.9802C17.3023 12.2757 17.1013 10.5746 16.9124 8.86919L17.0527 8.85435Z" fill="#A53A4C"/>
<path d="M71.9578 27.2296C71.6649 25.9617 71.3963 24.6876 71.0739 23.4267C70.4672 21.0742 69.78 18.7435 69.2358 16.3779C68.7444 14.2385 68.4351 12.0563 67.9723 9.90897C67.8065 9.16214 67.5242 8.44652 67.136 7.78875C66.694 7.03777 65.5856 7.17137 65.265 7.97737C65.0284 8.57029 64.8109 9.19204 64.7225 9.8199C64.3759 12.265 64.011 14.7057 63.7961 17.1612C63.5283 20.2228 63.3966 23.2966 63.2207 26.366C63.2028 26.7237 63.2299 27.0822 63.3013 27.4331C63.4252 28.0566 64.1254 28.4888 64.6228 28.2426C65.2139 27.95 65.7 27.5248 65.8066 26.8209C65.9453 25.9023 66.0822 24.981 66.1663 24.0563C66.2477 23.1525 66.2235 23.1437 67.1031 23.0686C67.1897 23.0608 67.2816 23.0686 67.3691 23.0547C67.8657 22.9857 68.1733 23.1769 68.3224 23.6773C68.6222 24.6876 68.8996 25.7093 69.2835 26.6865C69.4906 27.2104 69.8615 27.6933 70.2367 28.1308C70.3599 28.2894 70.5359 28.3977 70.7321 28.4357C70.9284 28.4738 71.1316 28.439 71.3044 28.3377C71.7212 28.1055 72.0081 27.792 71.9578 27.2296ZM67.0303 20.8131C66.5623 20.8209 66.337 20.6533 66.3699 20.1206C66.4228 19.1932 66.3977 18.2606 66.4124 17.3306C66.4124 17.142 66.4505 16.9525 66.4713 16.7639L66.6134 16.749C66.9332 18.065 67.2539 19.3818 67.6014 20.8131C67.3405 20.8131 67.1854 20.8104 67.0303 20.8131Z" fill="#A53A4C"/>
<path d="M27.4038 12.1571C27.4038 11.2838 27.3778 10.4027 27.4116 9.52687C27.4384 8.82042 27.6525 8.58028 28.3475 8.53313C30.068 8.41223 31.7967 8.5595 33.4726 8.96974C34.4606 9.21338 34.7543 10.1373 34.0611 10.7162C33.7872 10.9468 33.3539 11.0271 32.9787 11.0865C31.58 11.3074 31.0071 12.047 31.1813 13.4774C31.2437 13.9917 31.3234 14.5043 31.3867 15.0195C31.4543 15.5662 31.7697 15.8351 32.3001 15.8928C32.7767 15.9425 33.2534 15.9897 33.7265 16.0674C34.0231 16.1132 34.3123 16.199 34.5862 16.3224C35.7856 16.8926 35.9069 18.364 34.7916 19.1168C34.0862 19.5918 33.3088 19.9568 32.5766 20.3943C31.7004 20.9182 31.6042 21.1348 32.0107 22.0936C32.3192 22.7954 32.6825 23.4714 33.0974 24.1152C33.21 24.295 33.5151 24.4147 33.7456 24.4417C34.2063 24.4893 34.6701 24.4977 35.1322 24.4671C36.0352 24.4208 36.2536 25.5298 35.8445 25.9725C35.5499 26.2921 35.1963 26.6397 34.8046 26.7672C33.7908 27.0818 32.7609 27.3413 31.7195 27.5444C31.0695 27.678 30.5834 27.3426 30.1466 26.851C28.8987 25.4468 28.4376 23.7449 28.253 21.9382C27.9211 18.6836 27.6117 15.4256 27.2937 12.1693L27.4038 12.1571Z" fill="#A53A4C"/>
</svg>
