<svg width="52" height="52" viewBox="0 0 52 52" fill="none" xmlns="http://www.w3.org/2000/svg">
<g filter="url(#filter0_d_217_12571)">
<path d="M37.9995 26C37.9995 32.6274 32.6269 38 25.9995 38C19.3721 38 13.9995 32.6274 13.9995 26C13.9995 19.3726 19.3721 14 25.9995 14C32.6269 14 37.9995 19.3726 37.9995 26ZM16.3995 26C16.3995 31.3019 20.6976 35.6 25.9995 35.6C31.3014 35.6 35.5995 31.3019 35.5995 26C35.5995 20.6981 31.3014 16.4 25.9995 16.4C20.6976 16.4 16.3995 20.6981 16.3995 26Z" fill="white"/>
<path d="M37.9995 26C37.9995 32.6274 32.6269 38 25.9995 38C19.3721 38 13.9995 32.6274 13.9995 26C13.9995 19.3726 19.3721 14 25.9995 14C32.6269 14 37.9995 19.3726 37.9995 26ZM16.3995 26C16.3995 31.3019 20.6976 35.6 25.9995 35.6C31.3014 35.6 35.5995 31.3019 35.5995 26C35.5995 20.6981 31.3014 16.4 25.9995 16.4C20.6976 16.4 16.3995 20.6981 16.3995 26Z" stroke="#00DF8E"/>
</g>
<g filter="url(#filter1_d_217_12571)">
<circle cx="25.9995" cy="26" r="7" fill="white"/>
</g>
<defs>
<filter id="filter0_d_217_12571" x="-0.000488281" y="0" width="52" height="52" filterUnits="userSpaceOnUse" color-interpolation-filters="sRGB">
<feFlood flood-opacity="0" result="BackgroundImageFix"/>
<feColorMatrix in="SourceAlpha" type="matrix" values="0 0 0 0 0 0 0 0 0 0 0 0 0 0 0 0 0 0 127 0" result="hardAlpha"/>
<feOffset/>
<feGaussianBlur stdDeviation="7"/>
<feComposite in2="hardAlpha" operator="out"/>
<feColorMatrix type="matrix" values="0 0 0 0 0 0 0 0 0 0.87451 0 0 0 0 0.556863 0 0 0 1 0"/>
<feBlend mode="normal" in2="BackgroundImageFix" result="effect1_dropShadow_217_12571"/>
<feBlend mode="normal" in="SourceGraphic" in2="effect1_dropShadow_217_12571" result="shape"/>
</filter>
<filter id="filter1_d_217_12571" x="4.99951" y="5" width="42" height="42" filterUnits="userSpaceOnUse" color-interpolation-filters="sRGB">
<feFlood flood-opacity="0" result="BackgroundImageFix"/>
<feColorMatrix in="SourceAlpha" type="matrix" values="0 0 0 0 0 0 0 0 0 0 0 0 0 0 0 0 0 0 127 0" result="hardAlpha"/>
<feOffset/>
<feGaussianBlur stdDeviation="7"/>
<feComposite in2="hardAlpha" operator="out"/>
<feColorMatrix type="matrix" values="0 0 0 0 0 0 0 0 0 0.87451 0 0 0 0 0.556863 0 0 0 1 0"/>
<feBlend mode="normal" in2="BackgroundImageFix" result="effect1_dropShadow_217_12571"/>
<feBlend mode="normal" in="SourceGraphic" in2="effect1_dropShadow_217_12571" result="shape"/>
</filter>
</defs>
</svg>
